<?xml version="1.0" standalone="no"?>
<!DOCTYPE svg PUBLIC "-//W3C//DTD SVG 20010904//EN"
 "http://www.w3.org/TR/2001/REC-SVG-20010904/DTD/svg10.dtd">
<svg version="1.0" xmlns="http://www.w3.org/2000/svg"
 width="160.000000pt" height="160.000000pt" viewBox="0 0 160.000000 160.000000"
 preserveAspectRatio="xMidYMid meet">
<metadata>
Created by potrace 1.11, written by Peter Selinger 2001-2013
</metadata>
<g transform="translate(0.000000,160.000000) scale(0.100000,-0.100000)"
fill="#000000" stroke="none">
<path d="M315 1209 c-86 -32 -142 -116 -131 -196 13 -94 69 -132 246 -168 47
-9 98 -24 113 -32 43 -22 69 -70 64 -120 -9 -92 -76 -138 -197 -137 -107 0
-166 37 -195 121 -9 25 -19 38 -32 38 -16 0 -18 -9 -18 -95 0 -88 1 -95 20
-95 13 0 21 8 23 23 l3 22 29 -20 c70 -50 195 -65 281 -35 49 18 102 64 126
110 20 38 20 122 0 160 -32 62 -83 89 -217 115 -152 29 -190 57 -190 138 0 36
6 50 33 77 61 61 173 70 247 21 36 -24 54 -51 65 -99 4 -22 11 -28 28 -25 21
3 22 8 22 98 0 91 -1 95 -22 98 -13 2 -23 0 -23 -5 0 -4 -4 -14 -9 -21 -6 -10
-16 -8 -46 9 -44 26 -170 36 -220 18z"/>
<path d="M864 1195 c-10 -24 6 -35 52 -35 l44 0 0 -294 0 -295 -47 -3 c-40 -3
-48 -6 -48 -23 0 -19 7 -20 175 -20 168 0 175 1 175 20 0 18 -8 20 -97 23
l-98 3 0 139 0 140 85 0 85 0 0 -46 c0 -41 2 -45 23 -42 21 3 22 7 22 113 0
106 -1 110 -22 113 -21 3 -23 -1 -23 -42 l0 -46 -85 0 -85 0 0 130 0 130 185
0 185 0 0 -76 c0 -72 1 -75 23 -72 21 3 22 8 25 101 l3 97 -286 0 c-240 0
-287 -2 -291 -15z"/>
</g>
</svg>
